<!-- Replace this hero placeholder with supplied brand lifestyle photography. -->
<svg width="1800" height="1000" viewBox="0 0 1800 1000" fill="none" xmlns="http://www.w3.org/2000/svg">
  <rect width="1800" height="1000" fill="#E9F6FA"/>
  <rect x="0" y="0" width="1800" height="1000" fill="url(#bg)"/>
  <path d="M0 760h1800v240H0z" fill="#D9E3E8"/>
  <path d="M1040 165h470v595h-470z" fill="#F8FBFC"/>
  <path d="M1090 220h370v155h-370z" fill="#DCEBF1"/>
  <path d="M1090 410h370v292h-370z" fill="#FFFFFF"/>
  <path d="M1172 410h206v292h-206z" fill="#EFF7FA"/>
  <rect x="1230" y="145" width="90" height="90" rx="45" fill="#00B3E3" opacity=".34"/>
  <path d="M1268 72v82" stroke="#004B66" stroke-width="12" stroke-linecap="round"/>
  <ellipse cx="1268" cy="213" rx="88" ry="64" fill="#F3B23C" opacity=".82"/>
  <path d="M1268 148c-48 0-88 29-88 65h176c0-36-39-65-88-65z" fill="#008BB1"/>
  <rect x="1340" y="730" width="230" height="36" rx="18" fill="#004B66"/>
  <rect x="310" y="600" width="520" height="160" rx="12" fill="#FFFFFF"/>
  <rect x="380" y="450" width="380" height="170" rx="12" fill="#F8FBFC"/>
  <rect x="420" y="495" width="300" height="36" rx="18" fill="#00B3E3" opacity=".38"/>
  <rect x="430" y="550" width="190" height="24" rx="12" fill="#004B66" opacity=".22"/>
  <rect x="188" y="250" width="215" height="510" rx="12" fill="#FFFFFF"/>
  <rect x="225" y="302" width="140" height="140" rx="70" fill="#F3B23C" opacity=".62"/>
  <path d="M225 510h140" stroke="#008BB1" stroke-width="18" stroke-linecap="round"/>
  <path d="M225 580h140" stroke="#004B66" stroke-width="18" stroke-linecap="round" opacity=".45"/>
  <defs>
    <linearGradient id="bg" x1="0" x2="1800" y1="0" y2="1000" gradientUnits="userSpaceOnUse">
      <stop stop-color="#004B66"/>
      <stop offset=".45" stop-color="#008BB1"/>
      <stop offset="1" stop-color="#F8FBFC"/>
    </linearGradient>
  </defs>
</svg>
