<!-- Placeholder product image. Replace with supplied SKU photography. -->
<svg width="640" height="640" viewBox="0 0 640 640" fill="none" xmlns="http://www.w3.org/2000/svg">
  <rect width="640" height="640" rx="28" fill="#E9F6FA"/>
  <circle cx="320" cy="270" r="132" fill="#FFFFFF" stroke="#004B66" stroke-width="16"/>
  <circle cx="320" cy="270" r="30" fill="#008BB1"/>
  <path d="M320 240c-24-72 54-98 88-54 16 22-8 58-62 82M350 282c78-6 84 76 32 96-26 10-52-25-62-86M292 282c-48 62-116 16-104-38 6-28 50-30 102 8" fill="#00B3E3" opacity=".72"/>
  <path d="M320 402v76M250 510h140" stroke="#004B66" stroke-width="18" stroke-linecap="round"/>
  <text x="320" y="574" text-anchor="middle" font-family="Arial, sans-serif" font-size="34" font-weight="700" fill="#004B66">Cooling</text>
</svg>
