<!-- Placeholder product image. Replace with supplied smart lighting imagery. -->
<svg width="640" height="640" viewBox="0 0 640 640" fill="none" xmlns="http://www.w3.org/2000/svg">
  <rect width="640" height="640" rx="28" fill="#E9F6FA"/>
  <rect x="174" y="132" width="292" height="376" rx="44" fill="#FFFFFF" stroke="#004B66" stroke-width="16"/>
  <circle cx="320" cy="250" r="82" fill="#00B3E3" opacity=".32"/>
  <path d="M266 246c0-39 24-70 54-70s54 31 54 70c0 28-14 47-30 64-11 11-15 23-15 39h-18c0-16-4-28-15-39-16-17-30-36-30-64z" fill="#F3B23C"/>
  <rect x="295" y="352" width="50" height="40" rx="8" fill="#008BB1"/>
  <path d="M246 430h148" stroke="#004B66" stroke-width="16" stroke-linecap="round"/>
  <path d="M248 472h80" stroke="#00B3E3" stroke-width="16" stroke-linecap="round"/>
  <circle cx="422" cy="162" r="24" fill="#00B3E3"/>
  <circle cx="218" cy="478" r="16" fill="#F3B23C"/>
  <text x="320" y="574" text-anchor="middle" font-family="Arial, sans-serif" font-size="32" font-weight="700" fill="#004B66">Smart Lighting</text>
</svg>
