<!-- Placeholder product image. Replace with supplied SKU photography. -->
<svg width="640" height="640" viewBox="0 0 640 640" fill="none" xmlns="http://www.w3.org/2000/svg">
  <rect width="640" height="640" rx="28" fill="#F8FBFC"/>
  <circle cx="320" cy="250" r="148" fill="#FFE8A8"/>
  <path d="M210 244c0-78 50-138 110-138s110 60 110 138c0 85-48 141-110 141s-110-56-110-141z" fill="#FFF7DD" stroke="#004B66" stroke-width="14"/>
  <path d="M278 255c16-48 68-48 84 0M278 255c-8 48 20 82 42 104M362 255c8 48-20 82-42 104" stroke="#F3B23C" stroke-width="12" stroke-linecap="round"/>
  <rect x="276" y="390" width="88" height="48" rx="8" fill="#008BB1"/>
  <path d="M286 445h68M292 470h56" stroke="#004B66" stroke-width="14" stroke-linecap="round"/>
  <text x="320" y="574" text-anchor="middle" font-family="Arial, sans-serif" font-size="32" font-weight="700" fill="#004B66">Decorative Bulb</text>
</svg>
