<!-- Placeholder product image. Replace with supplied SKU photography. -->
<svg width="640" height="640" viewBox="0 0 640 640" fill="none" xmlns="http://www.w3.org/2000/svg">
  <rect width="640" height="640" rx="28" fill="#F4F7F9"/>
  <circle cx="320" cy="238" r="128" fill="#F3B23C" opacity=".45"/>
  <path d="M220 232c0-67 44-116 100-116s100 49 100 116c0 43-22 76-50 104-17 17-25 40-25 64h-50c0-24-8-47-25-64-28-28-50-61-50-104z" fill="#FFFFFF" stroke="#004B66" stroke-width="16"/>
  <path d="M281 410h78v35h-78zM290 445h60v34h-60zM303 479h34v28h-34z" fill="#008BB1"/>
  <path d="M277 240c16-25 36-38 61-38" stroke="#00B3E3" stroke-width="14" stroke-linecap="round"/>
  <text x="320" y="574" text-anchor="middle" font-family="Arial, sans-serif" font-size="34" font-weight="700" fill="#004B66">LED Bulb</text>
</svg>
